# Rhino

mtllib 1.mtl
g Default
o object_1
usemtl diffuse_Black
v 0 0 0
v 0.5 0 0
v 0.25 0.5 0
v 0.125 0.25 0
v 0.25 0 0
v 0.375 0.25 0
v 0 0 0
v 0 0 -0.20000000298023224
v 0.25 0.5 0
v 0.25 0.5 -0.20000000298023224
v 0.125 0.25 0
v 0.125 0.25 -0.20000000298023224
v 0.5 0 0
v 0.5 0 -0.20000000298023224
v 0 0 0
v 0 0 -0.20000000298023224
v 0.25 0 0
v 0.25 0 -0.20000000298023224
v 0.25 0.5 0
v 0.25 0.5 -0.20000000298023224
v 0.5 0 0
v 0.5 0 -0.20000000298023224
v 0.375 0.25 0
v 0.375 0.25 -0.20000000298023224
v 0 0 -0.20000000298023224
v 0.5 0 -0.20000000298023224
v 0.25 0.5 -0.20000000298023224
v 0.125 0.25 -0.20000000298023224
v 0.25 0 -0.20000000298023224
v 0.375 0.25 -0.20000000298023224
vn 0 0 1
vn 0 0 1
vn 0 0 1
vn 0 0 1
vn 0 0 1
vn 0 0 1
vn -0.89442718029022217 0.44721359014511108 0
vn -0.89442718029022217 0.44721359014511108 0
vn -0.89442718029022217 0.44721359014511108 0
vn -0.89442718029022217 0.44721359014511108 0
vn -0.89442718029022217 0.44721359014511108 0
vn -0.89442718029022217 0.44721359014511108 0
vn 0 -1 0
vn 0 -1 0
vn 0 -1 0
vn 0 -1 0
vn 0 -1 0
vn 0 -1 0
vn 0.89442718029022217 0.44721359014511108 0
vn 0.89442718029022217 0.44721359014511108 0
vn 0.89442718029022217 0.44721359014511108 0
vn 0.89442718029022217 0.44721359014511108 0
vn 0.89442718029022217 0.44721359014511108 0
vn 0.89442718029022217 0.44721359014511108 0
vn 0 0 -1
vn 0 0 -1
vn 0 0 -1
vn 0 0 -1
vn 0 0 -1
vn 0 0 -1
f 4//4 1//1 5//5 2//2 6//6 3//3
f 8//8 7//7 11//11 9//9 10//10 12//12
f 14//14 13//13 17//17 15//15 16//16 18//18
f 20//20 19//19 23//23 21//21 22//22 24//24
f 29//29 25//25 28//28 27//27 30//30 26//26
