# Rhino

mtllib Factory 2.mtl
g Building
o object_1
usemtl diffuse_0
v 46.291374206542969 0.44943174719810486 -8.1398935317993164
v 46.291374206542969 16.829977035522461 -8.1398935317993164
v 52.855785369873047 0.44943174719810486 -8.1398935317993164
v 52.855785369873047 16.829977035522461 -8.1398935317993164
v 52.855785369873047 0.44943174719810486 -8.1398935317993164
v 52.855785369873047 16.829977035522461 -8.1398935317993164
v 52.855785369873047 0.44943174719810486 -13.139893531799316
v 52.855785369873047 16.829977035522461 -13.139893531799316
v 52.855785369873047 0.44943174719810486 -13.139893531799316
v 52.855785369873047 16.829977035522461 -13.139893531799316
v 46.291374206542969 0.44943174719810486 -13.139893531799316
v 46.291374206542969 16.829977035522461 -13.139893531799316
v 46.291374206542969 0.44943174719810486 -13.139893531799316
v 46.291374206542969 16.829977035522461 -13.139893531799316
v 46.291374206542969 0.44943174719810486 -8.1398935317993164
v 46.291374206542969 16.829977035522461 -8.1398935317993164
v 46.291374206542969 0.44943174719810486 -8.1398935317993164
v 52.855785369873047 0.44943174719810486 -8.1398935317993164
v 52.855785369873047 0.44943174719810486 -13.139893531799316
v 46.291374206542969 0.44943174719810486 -13.139893531799316
v 46.291374206542969 16.829977035522461 -8.1398935317993164
v 52.855785369873047 16.829977035522461 -8.1398935317993164
v 52.855785369873047 16.829977035522461 -13.139893531799316
v 46.291374206542969 16.829977035522461 -13.139893531799316
vn 0 0 1
vn 0 0 1
vn 0 0 1
vn 0 0 1
vn 1 0 0
vn 1 0 0
vn 1 0 0
vn 1 0 0
vn 0 0 -1
vn 0 0 -1
vn 0 0 -1
vn 0 0 -1
vn -1 0 0
vn -1 0 0
vn -1 0 0
vn -1 0 0
vn 0 -1 0
vn 0 -1 0
vn 0 -1 0
vn 0 -1 0
vn 0 1 0
vn 0 1 0
vn 0 1 0
vn 0 1 0
f 18//18 17//17 20//20 19//19
f 24//24 21//21 22//22 23//23
f 1//1 3//3 4//4 2//2
f 5//5 7//7 8//8 6//6
f 9//9 11//11 12//12 10//10
f 13//13 15//15 16//16 14//14
