# Rhino

mtllib Factory 1.mtl
g Building
o object_1
usemtl diffuse_0
v 1.8821283578872681 0.44943174719810486 -10.141172409057617
v 1.8821283578872681 16.829977035522461 -10.141172409057617
v 10.025077819824219 0.44943174719810486 -2.6798319816589355
v 10.025077819824219 16.829977035522461 -2.6798319816589355
v 10.025077819824219 0.44943174719810486 -2.6798319816589355
v 10.025077819824219 16.829977035522461 -2.6798319816589355
v 16.131616592407227 0.44943174719810486 -9.3442173004150391
v 16.131616592407227 16.829977035522461 -9.3442173004150391
v 16.131616592407227 0.44943174719810486 -9.3442173004150391
v 16.131616592407227 16.829977035522461 -9.3442173004150391
v 7.9886679649353027 0.44943174719810486 -16.805557250976563
v 7.9886679649353027 16.829977035522461 -16.805557250976563
v 7.9886679649353027 0.44943174719810486 -16.805557250976563
v 7.9886679649353027 16.829977035522461 -16.805557250976563
v 1.8821283578872681 0.44943174719810486 -10.141172409057617
v 1.8821283578872681 16.829977035522461 -10.141172409057617
v 1.8821283578872681 0.44943174719810486 -10.141172409057617
v 10.025077819824219 0.44943174719810486 -2.6798319816589355
v 16.131616592407227 0.44943174719810486 -9.3442173004150391
v 7.9886679649353027 0.44943174719810486 -16.805557250976563
v 1.8821283578872681 16.829977035522461 -10.141172409057617
v 10.025077819824219 16.829977035522461 -2.6798319816589355
v 16.131616592407227 16.829977035522461 -9.3442173004150391
v 7.9886679649353027 16.829977035522461 -16.805557250976563
vn -0.67557555437088013 0 0.73729079961776733
vn -0.67557555437088013 0 0.73729079961776733
vn -0.67557555437088013 0 0.73729079961776733
vn -0.67557555437088013 0 0.73729079961776733
vn 0.73729079961776733 0 0.67557555437088013
vn 0.73729079961776733 0 0.67557555437088013
vn 0.73729079961776733 0 0.67557555437088013
vn 0.73729079961776733 0 0.67557555437088013
vn 0.67557555437088013 0 -0.73729079961776733
vn 0.67557555437088013 0 -0.73729079961776733
vn 0.67557555437088013 0 -0.73729079961776733
vn 0.67557555437088013 0 -0.73729079961776733
vn -0.73729079961776733 0 -0.67557555437088013
vn -0.73729079961776733 0 -0.67557555437088013
vn -0.73729079961776733 0 -0.67557555437088013
vn -0.73729079961776733 0 -0.67557555437088013
vn 0 -1 0
vn 0 -1 0
vn 0 -1 0
vn 0 -1 0
vn 0 1 0
vn 0 1 0
vn 0 1 0
vn 0 1 0
f 18//18 17//17 20//20 19//19
f 24//24 21//21 22//22 23//23
f 1//1 3//3 4//4 2//2
f 5//5 7//7 8//8 6//6
f 9//9 11//11 12//12 10//10
f 13//13 15//15 16//16 14//14
